<mxfile host="Electron" agent="Mozilla/5.0 (Windows NT 10.0; Win64; x64) AppleWebKit/537.36 (KHTML, like Gecko) draw.io/24.7.5 Chrome/126.0.6478.183 Electron/31.3.0 Safari/537.36" version="24.7.5">
  <diagram name="Page-1" id="oAh8AuSqJzG8OH73P7Bn">
    <mxGraphModel dx="3296" dy="2490" grid="1" gridSize="10" guides="1" tooltips="1" connect="1" arrows="1" fold="1" page="1" pageScale="1" pageWidth="1100" pageHeight="850" math="0" shadow="0">
      <root>
        <mxCell id="0" />
        <mxCell id="1" parent="0" />
        <mxCell id="WUw9xYCtdRWb1q3-n_r1-6" value="" style="rounded=1;whiteSpace=wrap;html=1;" vertex="1" parent="1">
          <mxGeometry x="-380" y="-181" width="1920" height="1080" as="geometry" />
        </mxCell>
        <mxCell id="WUw9xYCtdRWb1q3-n_r1-7" value="" style="rounded=1;whiteSpace=wrap;html=1;" vertex="1" parent="1">
          <mxGeometry x="456.25" y="170" width="247.5" height="330" as="geometry" />
        </mxCell>
        <mxCell id="WUw9xYCtdRWb1q3-n_r1-8" value="Randomize&lt;div&gt;Input&lt;/div&gt;" style="rounded=1;whiteSpace=wrap;html=1;" vertex="1" parent="1">
          <mxGeometry x="555" y="530" width="50" height="50" as="geometry" />
        </mxCell>
        <mxCell id="WUw9xYCtdRWb1q3-n_r1-9" value="Dark&lt;div&gt;Mode&lt;/div&gt;" style="rounded=1;whiteSpace=wrap;html=1;" vertex="1" parent="1">
          <mxGeometry x="456.25" y="530" width="50" height="50" as="geometry" />
        </mxCell>
        <mxCell id="WUw9xYCtdRWb1q3-n_r1-10" value="Memory&lt;div&gt;Lookup&lt;/div&gt;" style="rounded=1;whiteSpace=wrap;html=1;" vertex="1" parent="1">
          <mxGeometry x="653.75" y="530" width="50" height="50" as="geometry" />
        </mxCell>
        <mxCell id="WUw9xYCtdRWb1q3-n_r1-11" value="Mem Add. of Answ.&amp;nbsp;" style="rounded=1;whiteSpace=wrap;html=1;align=right;" vertex="1" parent="1">
          <mxGeometry x="481.25" y="200" width="190" height="60" as="geometry" />
        </mxCell>
        <mxCell id="WUw9xYCtdRWb1q3-n_r1-12" value="1" style="rounded=1;whiteSpace=wrap;html=1;" vertex="1" parent="1">
          <mxGeometry x="487.25" y="280" width="35" height="40" as="geometry" />
        </mxCell>
        <mxCell id="WUw9xYCtdRWb1q3-n_r1-13" value="2" style="rounded=1;whiteSpace=wrap;html=1;" vertex="1" parent="1">
          <mxGeometry x="536.25" y="280" width="35" height="40" as="geometry" />
        </mxCell>
        <mxCell id="WUw9xYCtdRWb1q3-n_r1-15" value="3" style="rounded=1;whiteSpace=wrap;html=1;" vertex="1" parent="1">
          <mxGeometry x="586.25" y="280" width="35" height="40" as="geometry" />
        </mxCell>
        <mxCell id="WUw9xYCtdRWb1q3-n_r1-16" value="4" style="rounded=1;whiteSpace=wrap;html=1;" vertex="1" parent="1">
          <mxGeometry x="636.25" y="280" width="35" height="40" as="geometry" />
        </mxCell>
        <mxCell id="WUw9xYCtdRWb1q3-n_r1-17" value="5" style="rounded=1;whiteSpace=wrap;html=1;" vertex="1" parent="1">
          <mxGeometry x="487.25" y="339" width="35" height="40" as="geometry" />
        </mxCell>
        <mxCell id="WUw9xYCtdRWb1q3-n_r1-18" value="6" style="rounded=1;whiteSpace=wrap;html=1;" vertex="1" parent="1">
          <mxGeometry x="536.25" y="339" width="35" height="40" as="geometry" />
        </mxCell>
        <mxCell id="WUw9xYCtdRWb1q3-n_r1-19" value="7" style="rounded=1;whiteSpace=wrap;html=1;" vertex="1" parent="1">
          <mxGeometry x="586.25" y="339" width="35" height="40" as="geometry" />
        </mxCell>
        <mxCell id="WUw9xYCtdRWb1q3-n_r1-20" value="8" style="rounded=1;whiteSpace=wrap;html=1;" vertex="1" parent="1">
          <mxGeometry x="636.25" y="339" width="35" height="40" as="geometry" />
        </mxCell>
        <mxCell id="WUw9xYCtdRWb1q3-n_r1-21" value="9" style="rounded=1;whiteSpace=wrap;html=1;" vertex="1" parent="1">
          <mxGeometry x="487.25" y="393" width="35" height="40" as="geometry" />
        </mxCell>
        <mxCell id="WUw9xYCtdRWb1q3-n_r1-22" value="0" style="rounded=1;whiteSpace=wrap;html=1;" vertex="1" parent="1">
          <mxGeometry x="536.25" y="393" width="35" height="40" as="geometry" />
        </mxCell>
        <mxCell id="WUw9xYCtdRWb1q3-n_r1-23" value="" style="rounded=1;whiteSpace=wrap;html=1;" vertex="1" parent="1">
          <mxGeometry x="586.25" y="390" width="100" height="90" as="geometry" />
        </mxCell>
        <mxCell id="WUw9xYCtdRWb1q3-n_r1-24" value="x" style="rounded=1;whiteSpace=wrap;html=1;" vertex="1" parent="1">
          <mxGeometry x="597.75" y="438" width="35" height="30" as="geometry" />
        </mxCell>
        <mxCell id="WUw9xYCtdRWb1q3-n_r1-25" value="รท" style="rounded=1;whiteSpace=wrap;html=1;" vertex="1" parent="1">
          <mxGeometry x="637.75" y="438" width="35" height="30" as="geometry" />
        </mxCell>
        <mxCell id="WUw9xYCtdRWb1q3-n_r1-27" value="+" style="rounded=1;whiteSpace=wrap;html=1;" vertex="1" parent="1">
          <mxGeometry x="597.75" y="403" width="35" height="30" as="geometry" />
        </mxCell>
        <mxCell id="WUw9xYCtdRWb1q3-n_r1-28" value="-" style="rounded=1;whiteSpace=wrap;html=1;" vertex="1" parent="1">
          <mxGeometry x="637.75" y="403" width="35" height="30" as="geometry" />
        </mxCell>
        <mxCell id="WUw9xYCtdRWb1q3-n_r1-30" value="" style="rounded=1;whiteSpace=wrap;html=1;" vertex="1" parent="1">
          <mxGeometry x="487.25" y="447" width="85" height="33" as="geometry" />
        </mxCell>
        <mxCell id="WUw9xYCtdRWb1q3-n_r1-33" value="&lt;font size=&quot;1&quot; style=&quot;&quot;&gt;&lt;b style=&quot;font-size: 30px;&quot;&gt;A VERY FUNCTIONAL CALCULATOR&lt;/b&gt;&lt;/font&gt;" style="text;html=1;align=center;verticalAlign=middle;whiteSpace=wrap;rounded=0;" vertex="1" parent="1">
          <mxGeometry x="230" y="-70" width="700" height="160" as="geometry" />
        </mxCell>
      </root>
    </mxGraphModel>
  </diagram>
</mxfile>
